<?xml version="1.0" encoding="UTF-8"?>
<svg version="1.1" xmlns="http://www.w3.org/2000/svg" width="512" height="512">
<path d="M0 0 C23.43 0 46.86 0 71 0 C70.74694092 13.01526123 70.74694092 13.01526123 70.48876953 26.29345703 C69.97337796 54.2075102 69.64905464 82.12095169 69.44169975 110.03892267 C69.40920172 114.39119468 69.37503826 118.74345213 69.33984375 123.09570312 C69.33286657 123.96198546 69.32588939 124.82826779 69.31870078 125.7208011 C69.2024606 139.6624323 68.95202721 153.5984748 68.64999916 167.53717829 C68.34204103 181.89088809 68.18290419 196.24097509 68.15560424 210.59798133 C68.13430959 219.42773535 68.0035944 228.24077952 67.7222697 237.06613843 C67.5393278 243.1579057 67.5038636 249.24064892 67.57311745 255.33469649 C67.60886738 258.83411037 67.59067499 262.30453553 67.39281654 265.79919624 C66.88251414 276.54199234 68.70152305 281.76576103 72 293 C84.54 305.54 97.08 318.08 110 331 C110.33 253.78 110.66 176.56 111 97 C134.76 97 158.52 97 183 97 C183.33 170.26 183.66 243.52 184 319 C211.11290362 292.57340387 211.11290362 292.57340387 237 265 C238.46003719 263.48137384 239.93475661 261.97637947 241.4375 260.5 C242.11683594 259.8296875 242.79617188 259.159375 243.49609375 258.46875 C244.24052734 257.74171875 244.24052734 257.74171875 245 257 C241.11199842 252.33653873 237.06457398 247.94498138 232.7265625 243.69921875 C231.56107208 242.54635116 230.39571106 241.39335274 229.23046875 240.24023438 C227.41509555 238.44984792 225.59813685 236.66112352 223.77880859 234.87475586 C222.00707947 233.13305203 220.24147718 231.38532349 218.4765625 229.63671875 C217.92666656 229.10028244 217.37677063 228.56384613 216.81021118 228.01115417 C215.50181722 226.71158099 214.24534326 225.36011227 213 224 C213 223.34 213 222.68 213 222 C216.3 221.67 219.6 221.34 223 221 C223 148.07 223 75.14 223 0 C246.43 0 269.86 0 294 0 C295.80017769 1.80017769 295.12260673 4.25503894 295.12908131 6.65160853 C295.12616847 7.46968578 295.12325563 8.28776302 295.12025452 9.13063049 C295.12153615 10.42435645 295.12153615 10.42435645 295.12284368 11.74421829 C295.12450114 14.65705481 295.1189728 17.56983473 295.11352539 20.48266602 C295.11324355 22.5616048 295.11340119 24.64054369 295.1139679 26.71948242 C295.11425599 32.38247439 295.10835731 38.04544537 295.10139394 43.70843244 C295.09516241 49.61949893 295.09455676 55.53056586 295.09336853 61.44163513 C295.09025462 72.64367695 295.08204043 83.84570906 295.07201904 95.0477466 C295.06085975 107.79722363 295.05534792 120.54670111 295.05032361 133.2961818 C295.03985786 159.53079326 295.02225727 185.76539609 295 212 C296.485 211.7834375 296.485 211.7834375 298 211.5625 C304.68866708 210.61290055 311.22670653 209.72353904 318 210 C317.39697637 222.07496836 316.18272739 234.014468 314.75 246.015625 C314.52931667 247.88885968 314.30894504 249.7621311 314.08886719 251.63543701 C313.63097919 255.52502672 313.17016671 259.41425435 312.70703125 263.30322266 C312.11378857 268.28578427 311.52681538 273.26906033 310.9418335 278.25259781 C310.4891914 282.10465408 310.0339107 285.95639472 309.57775879 289.8080368 C309.36019887 291.64676752 309.14331464 293.48557831 308.92712402 295.32447052 C308.62588367 297.88231974 308.32124171 300.43974079 308.015625 302.99707031 C307.92728394 303.75236526 307.83894287 304.50766022 307.7479248 305.2858429 C307.35025976 308.5854672 306.93030299 311.80364439 306 315 C302.71084737 313.90361579 302.10890393 313.21143338 299.984375 310.61328125 C295.36834074 305.17330186 290.31474138 300.20658144 285.25 295.1875 C284.29533647 294.23786785 283.34090799 293.28799934 282.38671875 292.33789062 C280.64470814 290.6045529 278.90166697 288.87224977 277.15722656 287.14135742 C275.4344252 285.43122945 273.71491439 283.71802864 272 282 C268.27964651 285.69541557 264.56275774 289.39427082 260.84887695 293.09619141 C259.58807785 294.3519982 258.32637824 295.60690164 257.0637207 296.86083984 C255.23664858 298.67562062 253.41296716 300.49375337 251.58984375 302.3125 C250.75814919 303.13645264 250.75814919 303.13645264 249.90965271 303.97705078 C247.06168293 306.82462223 244.34072934 309.72903927 241.71704102 312.78515625 C237.36749207 317.80903671 232.65576736 322.45002721 227.9375 327.125 C226.97748625 328.0805937 226.01777547 329.03649184 225.05834961 329.99267578 C221.53229527 333.50550592 218.0007571 337.01280573 214.46936035 340.52026367 C211.47308792 343.49665517 208.47897769 346.47519157 205.48757935 349.45648193 C204.1011466 350.83653133 202.71162702 352.21347744 201.32202148 353.59033203 C197.60661977 357.29142629 193.94557455 360.9882119 190.52905273 364.96875 C186.11030051 370.11387577 181.27882831 374.84552648 176.47265625 379.625 C175.47352972 380.62225677 174.4746272 381.61973802 173.47593689 382.61743164 C170.8725305 385.21705679 168.2661333 387.81366231 165.65905762 390.40960693 C162.98895726 393.06939763 160.32175723 395.7320934 157.65429688 398.39453125 C152.43899962 403.59916888 147.22053284 408.8006134 142 414 C136.86596622 409.70497566 132.06917612 405.20301979 127.35571289 400.45336914 C126.62626968 399.72246567 125.89682648 398.99156219 125.14527893 398.23851013 C123.57223986 396.66168534 122.0003564 395.08370701 120.42952156 393.50468636 C117.9381932 391.00051554 115.44368552 388.49955083 112.948349 385.99937439 C106.75265652 379.79035918 100.56241803 373.57591559 94.37200928 367.3616333 C89.13439867 362.10423878 83.89471003 356.84893185 78.65228081 351.59634209 C76.20419119 349.14180713 73.75915258 346.68426104 71.31422424 344.22657776 C69.80085965 342.70957771 68.28735283 341.19271952 66.77368164 339.67602539 C66.10278503 338.99996246 65.43188843 338.32389954 64.74066162 337.62734985 C60.89661661 333.78288166 56.94558594 330.12715192 52.8164053 326.59000206 C49.77388133 323.92670913 46.93889068 321.06225633 44.09375 318.19140625 C43.48358032 317.57982162 42.87341064 316.968237 42.24475098 316.33811951 C40.32743835 314.41528198 38.41366298 312.48896906 36.5 310.5625 C35.18773415 309.24520941 33.87523605 307.92815014 32.5625 306.61132812 C29.37231494 303.4102139 26.18529349 300.20598135 23 297 C20.66460065 298.99759844 18.33169844 300.9980831 16 303 C15.47701324 303.44817078 14.95402649 303.89634155 14.41519165 304.35809326 C11.21386524 307.11668234 8.08670957 309.94317461 4.99829102 312.82763672 C3.87249136 313.860992 2.72852816 314.87489363 1.56762695 315.86865234 C-2.37749787 319.25973352 -5.55924679 322.36312788 -8 327 C-8.27148285 331.97761777 -6.44046079 336.50259345 -4.66389465 341.06919861 C2.46232508 361.79434666 -3.0747128 387.14805833 -12.30102539 406.17529297 C-24.45507179 429.94418628 -45.39950266 445.78880783 -70.3125 454.3125 C-94.8762121 461.2877524 -120.5192062 458.16389242 -143.0546875 446.40625 C-166.01936066 433.55070777 -181.9717403 413.58214276 -189.375 388.4375 C-196.38096884 362.57633677 -192.25250122 335.81107735 -179.15625 312.75390625 C-167.28889818 294.05309979 -150.33392361 280.53662879 -129.75 272.5625 C-129.12528809 272.3154834 -128.50057617 272.0684668 -127.85693359 271.81396484 C-122.33935778 269.79540973 -118.22946283 269.62294628 -112 269 C-112 212.24 -112 155.48 -112 97 C-88.24 97 -64.48 97 -40 97 C-40.01683838 102.71376953 -40.03367676 108.42753906 -40.05102539 114.31445312 C-40.1000737 133.17779149 -40.10025851 152.04089541 -40.07515812 170.90427399 C-40.06113353 182.3429324 -40.06388339 193.78112639 -40.10620117 205.21972656 C-40.14304542 215.19034202 -40.1483363 225.16039112 -40.11582941 235.13103056 C-40.09971794 240.41004768 -40.09934453 245.68800258 -40.13676643 250.9669342 C-40.1715086 255.93820762 -40.16398669 260.90764454 -40.12437057 265.87886429 C-40.11724072 267.70092526 -40.12541145 269.52312196 -40.15022469 271.34502792 C-40.54099963 281.13413662 -40.54099963 281.13413662 -36.92208672 289.90605164 C-34.70496751 291.89993299 -32.58302979 293.520949 -30 295 C-18.02178113 289.30049105 -6.49958363 280.36715139 -1 268 C3.92684519 250.79771476 2.16030454 231.31350866 1.78199146 213.54193741 C1.62908724 206.12301241 1.62167992 198.70583557 1.62105482 191.2855928 C1.6162155 178.05945412 1.50071219 164.83678085 1.31323242 151.61206055 C1.13162157 138.78423424 1.00361366 125.95767036 0.94604492 113.12866211 C0.94246383 112.33471538 0.93888274 111.54076865 0.93519313 110.72276293 C0.91754875 106.73880105 0.90094085 102.75483565 0.88484776 98.77086723 C0.75050741 65.84440381 0.4147807 32.92442152 0 0 Z " fill="#FEC04F" transform="translate(193,27)"/>
<path d="M0 0 C23.43 0 46.86 0 71 0 C71 96.69 71 193.38 71 293 C63.12877086 286.25323217 63.12877086 286.25323217 59.99584961 283.07763672 C59.29499741 282.3702536 58.5941452 281.66287048 57.87205505 280.93405151 C57.13955032 280.19011139 56.40704559 279.44617126 55.65234375 278.6796875 C54.06198387 277.07668906 52.47148491 275.47382859 50.88085938 273.87109375 C48.40160744 271.36699271 45.92399383 268.86131229 43.44897461 266.35302734 C41.04202261 263.9158187 38.62884447 261.48491191 36.21484375 259.0546875 C35.11305031 257.93270462 35.11305031 257.93270462 33.98899841 256.78805542 C30.21361544 252.9943894 26.5908634 249.76308224 22 247 C21.36908447 247.63615234 20.73816895 248.27230469 20.08813477 248.92773438 C17.75499932 251.27787173 15.41965895 253.62577157 13.08276367 255.97216797 C12.0701449 256.98982788 11.05842377 258.00838179 10.04760742 259.02783203 C8.5978706 260.48964407 7.14497792 261.94825242 5.69140625 263.40625 C4.81685791 264.28603516 3.94230957 265.16582031 3.04125977 266.07226562 C1 268 1 268 0 268 C0 179.56 0 91.12 0 0 Z " fill="#539FFE" transform="translate(193,27)"/>
<path d="M0 0 C23.76 0 47.52 0 72 0 C72.33127761 28.39134064 72.60800186 56.78116783 72.76597994 85.17396554 C72.78473841 88.53313538 72.80415345 91.89230112 72.82397461 95.25146484 C72.82987659 96.25450188 72.82987659 96.25450188 72.83589781 97.27780229 C72.90100058 108.07643376 73.01917152 118.87385582 73.15729194 129.67177206 C73.29804073 140.76851002 73.37985872 151.86458473 73.41132742 162.96216917 C73.43082327 169.18906271 73.47637388 175.41322251 73.58595085 181.63923645 C73.68843827 187.5104837 73.71904586 193.37789546 73.69661522 199.24995232 C73.70071286 201.39459593 73.73016739 203.53937929 73.78808212 205.68324471 C74.05239913 215.98027092 73.90048429 223.89073847 66.85330731 231.89709902 C64.31425953 234.48811972 61.68447286 236.92523076 58.93818867 239.29460239 C55.81469296 242.04294273 52.96136425 245.04681511 50.06640625 248.03125 C47.90551029 250.194641 45.73326805 252.34651981 43.5625 254.5 C42.42618993 255.63126703 41.29012193 256.76277725 40.15429688 257.89453125 C37.43894996 260.59913557 34.72045475 263.30053392 32 266 C28.97022571 264.64768813 26.91527387 263.14519457 24.609375 260.76953125 C23.67424072 259.81711548 23.67424072 259.81711548 22.72021484 258.84545898 C22.07004395 258.17458252 21.41987305 257.50370605 20.75 256.8125 C16.22396796 252.20313669 11.73831049 247.66130779 6.7109375 243.58984375 C-0.24506704 237.12615917 -0.24506704 237.12615917 -0.61523914 231.57601357 C-0.63615424 229.82379443 -0.62960134 228.0711152 -0.60127258 226.31900024 C-0.60554471 225.35015534 -0.60981683 224.38131043 -0.61421841 223.38310659 C-0.62244782 220.139861 -0.59496315 216.8979114 -0.56762695 213.65478516 C-0.56621648 211.32880687 -0.56700845 209.00282636 -0.56983948 206.67684937 C-0.57127504 200.36316161 -0.54186179 194.04994805 -0.50696969 187.73637056 C-0.47889497 181.80652483 -0.47385404 175.87669742 -0.46871033 169.9467942 C-0.45777433 158.20353508 -0.42451913 146.46044988 -0.37719727 134.71728516 C-0.3312836 123.31169503 -0.29590058 111.90615219 -0.2746582 100.50048828 C-0.27334459 99.79713367 -0.27203097 99.09377905 -0.27067754 98.36911066 C-0.26415223 94.84049395 -0.25783372 91.3118769 -0.25161803 87.78325963 C-0.19980666 58.52204046 -0.10764323 29.26107342 0 0 Z " fill="#3790F3" transform="translate(304,124)"/>
<path d="M0 0 C15.70814102 12.37611111 26.8830587 29.77635674 29.8359375 49.796875 C31.36231225 71.80188742 26.66747953 92.53320137 11.9453125 109.56640625 C1.43219457 120.68305502 -10.42719781 128.40126387 -25.1640625 132.796875 C-26.19466797 133.13332031 -26.19466797 133.13332031 -27.24609375 133.4765625 C-34.98227509 135.63618482 -43.21274155 135.04007248 -51.1640625 134.796875 C-52.01226562 134.77882813 -52.86046875 134.76078125 -53.734375 134.7421875 C-72.58896772 133.52344957 -89.66457544 122.15641754 -101.8203125 108.40039062 C-113.61972705 94.3199846 -118.76628457 77.5045408 -118.6015625 59.359375 C-118.59253906 58.16795898 -118.58351563 56.97654297 -118.57421875 55.74902344 C-118.40869925 47.37419662 -117.80451167 40.43872439 -114.1640625 32.796875 C-113.90093262 32.21083496 -113.63780273 31.62479492 -113.36669922 31.02099609 C-108.8463037 21.06691631 -102.97463853 13.38953481 -95.1640625 5.796875 C-94.46152344 5.10851562 -93.75898437 4.42015625 -93.03515625 3.7109375 C-67.1039155 -20.28200848 -28.02932872 -19.51671777 0 0 Z " fill="#FEBD00" transform="translate(140.1640625,329.203125)"/>
<path d="M0 0 C23.43 0 46.86 0 71 0 C72.80017769 1.80017769 72.12260673 4.25503894 72.12908131 6.65160853 C72.12616847 7.46968578 72.12325563 8.28776302 72.12025452 9.13063049 C72.12110894 9.99311447 72.12196337 10.85559844 72.12284368 11.74421829 C72.12450114 14.65705481 72.1189728 17.56983473 72.11352539 20.48266602 C72.11324355 22.5616048 72.11340119 24.64054369 72.1139679 26.71948242 C72.11425599 32.38247439 72.10835731 38.04544537 72.10139394 43.70843244 C72.09516241 49.61949893 72.09455676 55.53056586 72.09336853 61.44163513 C72.09025462 72.64367695 72.08204043 83.84570906 72.07201904 95.0477466 C72.06085975 107.79722363 72.05534792 120.54670111 72.05032361 133.2961818 C72.03985786 159.53079326 72.02225727 185.76539609 72 212 C67.81273592 213.77315958 63.94695617 214.52259167 59.4453125 214.96484375 C58.34976547 215.08174309 58.34976547 215.08174309 57.23208618 215.20100403 C54.86367259 215.45278796 52.4943888 215.69508256 50.125 215.9375 C46.86157352 216.28138795 43.59871699 216.63050106 40.3359375 216.98046875 C39.53111938 217.06624176 38.72630127 217.15201477 37.89709473 217.24038696 C30.2635478 218.06169205 22.65504086 219.04655013 15.05517578 220.13647461 C14.22743652 220.25128174 13.39969727 220.36608887 12.546875 220.484375 C11.85432617 220.58459961 11.16177734 220.68482422 10.44824219 220.78808594 C6.97775509 221.08848311 3.48346367 221 0 221 C0 148.07 0 75.14 0 0 Z " fill="#3791F4" transform="translate(416,27)"/>
<path d="M0 0 C23.76 0 47.52 0 72 0 C72 62.7 72 125.4 72 190 C67.38 187.36 62.76 184.72 58 182 C38.44909239 172.2245462 22.54128392 172 0 172 C0 115.24 0 58.48 0 0 Z " fill="#3791F4" transform="translate(81,124)"/>
<path d="M0 0 C8.10839972 7.73676474 14.4133437 16.31093548 20 26 C20.65097656 27.12277344 21.30195313 28.24554688 21.97265625 29.40234375 C33.48914988 50.74820136 34.79699368 76.91243325 27.9375 100 C23.59376792 113.44956797 16.59698699 125.63122735 7 136 C6.30390625 136.77601563 5.6078125 137.55203125 4.890625 138.3515625 C-12.2074143 156.51042906 -36.37715266 165.90366956 -61 167 C-87.97886052 167.53145608 -112.43267643 156.72914951 -132 138.375 C-151.84545003 117.80789724 -158.58959601 92.88930757 -158.2734375 64.8671875 C-157.58727814 39.96843456 -145.43102578 18.25941231 -128 1 C-92.48851985 -31.83244393 -36.51403233 -30.94139658 0 0 Z M-122 25 C-124.5993713 28.53312604 -126.8526932 32.17768406 -129 36 C-129.47308594 36.8353125 -129.94617188 37.670625 -130.43359375 38.53125 C-135.96438155 48.9035286 -137.49360352 58.76823187 -137.375 70.4375 C-137.38660156 71.57509766 -137.39820313 72.71269531 -137.41015625 73.88476562 C-137.37292879 84.76138858 -135.31793412 94.53983861 -130.25 104.1875 C-129.722854 105.209646 -129.722854 105.209646 -129.18505859 106.25244141 C-126.32430964 111.66066216 -123.13690459 116.47153653 -119 121 C-118.24976562 121.83015625 -117.49953125 122.6603125 -116.7265625 123.515625 C-102.51704848 138.48716343 -84.49759698 145.57527408 -64.0637207 146.27099609 C-43.22130952 146.66622308 -24.56053229 138.07499911 -9.67578125 123.765625 C-0.81168696 114.5553946 5.42203329 103.25924384 9 91 C9.22429687 90.27425781 9.44859375 89.54851562 9.6796875 88.80078125 C14.69573832 69.11449961 9.9617683 49.08151647 0.10742188 31.81445312 C-11.1277968 13.40613188 -28.63297235 3.15817113 -49 -2 C-77.25805565 -7.84649427 -103.36865057 3.86593199 -122 25 Z " fill="#FEDD4F" transform="translate(159,318)"/>
<path d="M0 0 C11.55 0 23.1 0 35 0 C35 84.81 35 169.62 35 257 C32.69 255.02 30.38 253.04 28 251 C26.02240239 249.63365983 24.02994599 248.28728282 22 247 C21.36908447 247.63615234 20.73816895 248.27230469 20.08813477 248.92773438 C17.75499932 251.27787173 15.41965895 253.62577157 13.08276367 255.97216797 C12.0701449 256.98982788 11.05842377 258.00838179 10.04760742 259.02783203 C8.5978706 260.48964407 7.14497792 261.94825242 5.69140625 263.40625 C4.81685791 264.28603516 3.94230957 265.16582031 3.04125977 266.07226562 C1 268 1 268 0 268 C0 179.56 0 91.12 0 0 Z " fill="#3791F3" transform="translate(193,27)"/>
<path d="M0 0 C11.88 0 23.76 0 36 0 C36.33977023 28.39092347 36.60800317 56.78140313 36.76597994 85.17396554 C36.78473841 88.53313538 36.80415345 91.89230112 36.82397461 95.25146484 C36.82790927 95.9201562 36.83184392 96.58884756 36.83589781 97.27780229 C36.90100058 108.07643376 37.01917152 118.87385582 37.15729194 129.67177206 C37.29804073 140.76851002 37.37985872 151.86458473 37.41132742 162.96216917 C37.43082327 169.18906271 37.47637388 175.41322251 37.58595085 181.63923645 C37.68843827 187.5104837 37.71904586 193.37789546 37.69661522 199.24995232 C37.70071286 201.39459593 37.73016739 203.53937929 37.78808212 205.68324471 C38.05398306 216.04197642 37.88077249 223.913272 30.78922039 231.96118593 C28.23646283 234.56573839 25.59623551 237.02029914 22.83308613 239.39970493 C20.19571622 241.70214451 17.80563898 244.19639339 15.37890625 246.71875 C13.77609648 248.31517407 12.17072893 249.9090353 10.5625 251.5 C9.72396484 252.33402344 8.88542969 253.16804687 8.02148438 254.02734375 C6.01671104 256.02066124 4.00961166 258.01156272 2 260 C1.34 259.67 0.68 259.34 0 259 C0 173.53 0 88.06 0 0 Z " fill="#539FFE" transform="translate(340,124)"/>
<path d="M0 0 C11.88 0 23.76 0 36 0 C36 69.63 36 139.26 36 211 C24.75133043 215.49946783 12.05885244 214.83301428 0 216 C0 144.72 0 73.44 0 0 Z " fill="#54A0FE" transform="translate(452,28)"/>
<path d="M0 0 C11.55 0 23.1 0 35 0 C35 59.07 35 118.14 35 179 C23.88515782 177.88851578 23.88515782 177.88851578 19.8125 176.4375 C15.71046092 175.10641712 12.32964433 174.9198214 8 175 C5.36 174.34 2.72 173.68 0 173 C0 115.91 0 58.82 0 0 Z " fill="#539FFE" transform="translate(117,125)"/>
<path d="M0 0 C0.78632813 0.79277344 1.57265625 1.58554687 2.3828125 2.40234375 C4.81658181 4.89311606 4.81658181 4.89311606 6.875 6.5625 C8 8 8 8 7.91650391 9.72753906 C6.54946677 13.11709198 4.04383565 15.30278063 1.4609375 17.796875 C0.90185699 18.34933899 0.34277649 18.90180298 -0.23324585 19.4710083 C-2.02353431 21.2379177 -3.82362834 22.99439735 -5.625 24.75 C-7.40326919 26.49292652 -9.17929007 28.23805536 -10.95248413 29.98614502 C-12.05449448 31.07151273 -13.15958879 32.1537626 -14.26846313 33.2321167 C-17.0663898 35.97720909 -19.71353235 38.78807397 -22.26708984 41.76269531 C-26.62069962 46.79569839 -31.33745505 51.44331181 -36.0625 56.125 C-37.02251375 57.0805937 -37.98222453 58.03649184 -38.94165039 58.99267578 C-42.46770473 62.50550592 -45.9992429 66.01280573 -49.53063965 69.52026367 C-52.52691208 72.49665517 -55.52102231 75.47519157 -58.51242065 78.45648193 C-59.8988534 79.83653133 -61.28837298 81.21347744 -62.67797852 82.59033203 C-66.39338023 86.29142629 -70.05442545 89.9882119 -73.47094727 93.96875 C-77.88969949 99.11387577 -82.72117169 103.84552648 -87.52734375 108.625 C-88.52647028 109.62225677 -89.5253728 110.61973802 -90.52406311 111.61743164 C-93.1274695 114.21705679 -95.7338667 116.81366231 -98.34094238 119.40960693 C-101.01104274 122.06939763 -103.67824277 124.7320934 -106.34570312 127.39453125 C-111.56100038 132.59916888 -116.77946716 137.8006134 -122 143 C-127.13403378 138.70497566 -131.93082388 134.20301979 -136.64428711 129.45336914 C-137.37373032 128.72246567 -138.10317352 127.99156219 -138.85472107 127.23851013 C-140.42776014 125.66168534 -141.9996436 124.08370701 -143.57047844 122.50468636 C-146.0618068 120.00051554 -148.55631448 117.49955083 -151.051651 114.99937439 C-157.24734348 108.79035918 -163.43758197 102.57591559 -169.62799072 96.3616333 C-174.86560133 91.10423878 -180.10528997 85.84893185 -185.34771919 80.59634209 C-187.79580881 78.14180713 -190.24084742 75.68426104 -192.68577576 73.22657776 C-194.19914035 71.70957771 -195.71264717 70.19271952 -197.22631836 68.67602539 C-198.23266327 67.661931 -198.23266327 67.661931 -199.25933838 66.62734985 C-203.10338339 62.78288166 -207.05441406 59.12715192 -211.1835947 55.59000206 C-214.22611867 52.92670913 -217.06110932 50.06225633 -219.90625 47.19140625 C-220.51641968 46.57982162 -221.12658936 45.968237 -221.75524902 45.33811951 C-223.67256165 43.41528198 -225.58633702 41.48896906 -227.5 39.5625 C-228.81226585 38.24520941 -230.12476395 36.92815014 -231.4375 35.61132812 C-234.62768506 32.4102139 -237.81470651 29.20598135 -241 26 C-245.49913107 29.7596806 -249.76700016 33.64258692 -253.86328125 37.8359375 C-254.92500387 38.91028112 -255.98685639 39.98449637 -257.04882812 41.05859375 C-258.69435512 42.72911672 -260.33821155 44.40122736 -261.97973633 46.07568359 C-263.58244281 47.7084157 -265.191171 49.33501528 -266.80078125 50.9609375 C-267.53981438 51.72016006 -267.53981438 51.72016006 -268.29377747 52.49472046 C-269.4917317 53.701517 -270.74168997 54.85627447 -272 56 C-272.66 56 -273.32 56 -274 56 C-274.86883706 54.42466914 -275.71959068 52.83935491 -276.5625 51.25 C-277.03816406 50.36828125 -277.51382813 49.4865625 -278.00390625 48.578125 C-279.13480318 45.65109766 -279.04405794 44.87493655 -278 42 C-276.74324036 40.36901855 -276.74324036 40.36901855 -275.13598633 38.76367188 C-274.5347847 38.15624146 -273.93358307 37.54881104 -273.31416321 36.92297363 C-272.66005966 36.27807983 -272.00595612 35.63318604 -271.33203125 34.96875 C-270.65959885 34.29581909 -269.98716644 33.62288818 -269.2943573 32.92956543 C-267.86966953 31.50721772 -266.44128853 30.08856116 -265.00952148 28.67333984 C-262.82950479 26.5168215 -260.66301027 24.3474 -258.49804688 22.17578125 C-257.11016378 20.79347842 -255.72151607 19.41194277 -254.33203125 18.03125 C-253.68804886 17.3863562 -253.04406647 16.7414624 -252.38056946 16.07702637 C-248.80172258 12.55347234 -245.28280748 9.62949817 -241 7 C-240.3709375 7.64066406 -239.741875 8.28132813 -239.09375 8.94140625 C-238.2378125 9.80636719 -237.381875 10.67132813 -236.5 11.5625 C-235.6646875 12.40941406 -234.829375 13.25632812 -233.96875 14.12890625 C-231.96487908 16.11154216 -229.89053729 17.94878993 -227.734375 19.76342773 C-221.65731957 25.06532125 -216.04300612 30.84685098 -210.36094666 36.56388855 C-208.24341912 38.69431126 -206.1226685 40.82147922 -204.00109863 42.94787598 C-198.7353148 48.22694934 -193.47501608 53.51147737 -188.21453857 58.7958374 C-183.75844939 63.27173302 -179.30026615 67.74552329 -174.83934021 72.21659851 C-172.76129658 74.30107178 -170.68631465 76.38855921 -168.6114502 78.47619629 C-163.10473019 84.00407537 -157.6325257 89.49508815 -151.67932129 94.54776001 C-148.74774332 97.08292394 -146.03886369 99.83786291 -143.3125 102.58984375 C-142.72452637 103.17923233 -142.13655273 103.76862091 -141.53076172 104.37586975 C-139.68477639 106.22737618 -137.84233108 108.08235817 -136 109.9375 C-134.7359115 111.20661373 -133.47159044 112.47549589 -132.20703125 113.74414062 C-129.13533276 116.8267632 -126.06679992 119.91250428 -123 123 C-119.01912835 121.39822218 -116.34506826 118.61769406 -113.38671875 115.6171875 C-112.85407913 115.08408966 -112.32143951 114.55099182 -111.7726593 114.0017395 C-110.64660079 112.87266483 -109.5229688 111.74116559 -108.40161133 110.60742188 C-106.70891256 108.89664129 -105.00852511 107.19382508 -103.30664062 105.4921875 C-102.20786401 104.38848786 -101.10954264 103.28433479 -100.01171875 102.1796875 C-99.51355148 101.68040741 -99.01538422 101.18112732 -98.50212097 100.66671753 C-95.79906072 97.92825211 -93.22098543 95.12349139 -90.7121582 92.20556641 C-86.5616541 87.42150245 -82.09257682 82.98556607 -77.59375 78.53125 C-76.71021851 77.65150513 -75.82668701 76.77176025 -74.91638184 75.86535645 C-71.6402768 72.60343055 -68.3596502 69.34607436 -65.07867432 66.08905029 C-61.85169462 62.8851274 -58.6286192 59.67730884 -55.40625 56.46875 C-54.56751343 55.63831177 -53.72877686 54.80787354 -52.86462402 53.95227051 C-48.66694479 49.77197297 -44.65982754 45.51555202 -40.79794312 41.02502441 C-37.29706713 37.08198568 -33.52416821 33.40288978 -29.78515625 29.6875 C-28.92941513 28.83317383 -28.07367401 27.97884766 -27.19200134 27.09863281 C-24.48452619 24.39671138 -21.77357746 21.69830641 -19.0625 19 C-17.21526325 17.15778423 -15.36825573 15.31533857 -13.52148438 13.47265625 C-9.01696997 8.97910939 -4.50960595 4.4884368 0 0 Z " fill="#FE9F22" transform="translate(457,298)"/>
<path d="M0 0 C2.3125 1.5 2.3125 1.5 4 4 C4.33165641 6.75853904 4.18638381 9.20424286 4 12 C4.86625 12.226875 5.7325 12.45375 6.625 12.6875 C13.76200112 15.46300044 16.9443259 19.63975276 20.0859375 26.4296875 C21.45907722 30.29090946 21.57060144 32.93446473 21 37 C19.9375 39 19.9375 39 18 40 C14.5 40.4375 14.5 40.4375 11 40 C8.25566716 37.72882799 7.79004722 35.28545032 7.0625 31.9375 C6.45995093 29.36949325 6.08683677 28.11115106 4.4375 26 C0.62417259 24.43555798 -2.94672524 24.35177407 -7 25 C-9.74337994 26.64602796 -10.64802249 27.8209984 -11.55859375 30.87109375 C-12.21545592 34.45336268 -12.22344507 36.48607633 -10.75 39.875 C-7.61763312 43.67858835 -5.07139366 44.24031387 -0.375 44.75 C6.73397583 45.86749318 12.10856281 48.33196578 16.62890625 54.06640625 C20.62528133 60.24883266 21.90309762 65.66103431 21 73 C18.78676228 79.77866081 15.13576567 85.24027115 9 89 C6.0625 89.875 6.0625 89.875 4 90 C4.04640625 90.60328125 4.0928125 91.2065625 4.140625 91.828125 C4.43470483 98.33989267 4.43470483 98.33989267 2.3125 101.5625 C-0.50673193 103.31499552 -1.74836447 103.73161799 -5 103 C-7.50409236 100.8342985 -8.8559854 99.23669679 -9.24609375 95.88671875 C-9.24958212 93.92276836 -9.13284444 91.95945545 -9 90 C-9.74121094 89.896875 -10.48242188 89.79375 -11.24609375 89.6875 C-16.58290479 88.35518972 -20.5078995 84.36076068 -23.40234375 79.78125 C-25.6167458 75.17907634 -26.80856604 71.15460852 -26 66 C-24.4375 63.5 -24.4375 63.5 -22 62 C-18.375 62.0625 -18.375 62.0625 -15 63 C-13.19308374 65.71037439 -12.49054702 67.44512818 -11.625 70.5 C-10.74762602 73.14072364 -10.07511947 74.90176685 -8.375 77.125 C-4.48285139 78.55894949 -0.94283054 78.16476278 3 77 C5.66346536 74.8562352 6.7026198 73.41541539 7.40625 70.06640625 C7.68951636 66.32020869 7.22796195 64.37450892 5.25 61.125 C1.18018771 58.46396889 -2.23576109 58.20919877 -6.9921875 57.578125 C-14.12765685 56.20663219 -18.93797947 51.80288647 -23 46 C-26.13701288 40.37501139 -26.89070829 35.31413213 -26 29 C-23.44462954 21.1140718 -18.00267529 16.20160517 -11 12 C-10.34 12 -9.68 12 -9 12 C-9.12375 10.14375 -9.12375 10.14375 -9.25 8.25 C-9.24442437 5.1053456 -9.13412091 4.19869764 -7.3125 1.5 C-4.51333204 -0.31567651 -3.27103386 -0.65420677 0 0 Z " fill="#FFFDF8" transform="translate(98,338)"/>
<path d="M0 0 C1.16144531 0.00902344 2.32289062 0.01804687 3.51953125 0.02734375 C4.39996094 0.03894531 5.28039062 0.05054688 6.1875 0.0625 C6.1875 0.3925 6.1875 0.7225 6.1875 1.0625 C5.218125 1.2584375 4.24875 1.454375 3.25 1.65625 C-7.36132508 3.96131684 -16.35910974 7.77704152 -25.8125 13.0625 C-26.78832031 13.58457031 -27.76414063 14.10664063 -28.76953125 14.64453125 C-49.87928375 26.85295327 -62.75444851 48.94394118 -69.05078125 71.87109375 C-74.78533406 95.89739963 -70.2149183 121.86594477 -57.8125 143.0625 C-43.43124202 165.57114781 -21.47981088 179.816879 4.1875 186.0625 C6.96625602 186.45703574 9.66152595 186.73529882 12.46484375 186.82421875 C13.03332031 186.90285156 13.60179688 186.98148438 14.1875 187.0625 C14.5175 187.7225 14.8475 188.3825 15.1875 189.0625 C-12.81467398 188.36937688 -37.95414825 178.94524636 -57.74609375 158.43359375 C-77.62856595 135.61949049 -83.39958177 109.91559668 -81.8125 80.0625 C-79.25063249 56.05489623 -65.19759023 34.11162348 -47 18.8125 C-33.74041602 8.74774492 -16.95106572 -0.17122289 0 0 Z " fill="#F7D33D" transform="translate(82.8125,295.9375)"/>
<path d="M0 0 C0 0.33 0 0.66 0 1 C-0.680625 1.12375 -1.36125 1.2475 -2.0625 1.375 C-20.87485173 5.37762803 -37.13953333 16.04744639 -48 32 C-59.05052804 50.04428444 -63.08082137 69.82372194 -58.5 90.625 C-53.98779014 108.75152757 -43.52709341 124.46238202 -28 135 C-19.15782703 140.30390985 -10.19398962 144.14654734 0 146 C0 146.33 0 146.66 0 147 C-17.55041213 148.12023907 -33.25289108 142.76704518 -46.80761719 131.49707031 C-61.01997101 118.84565595 -71.52719632 101.98146153 -73.30322266 82.7097168 C-73.43585214 79.32120726 -73.46828276 75.9534136 -73.4375 72.5625 C-73.42847656 71.37108398 -73.41945313 70.17966797 -73.41015625 68.95214844 C-73.24463675 60.57732162 -72.64044917 53.64184939 -69 46 C-68.73687012 45.41395996 -68.47374023 44.82791992 -68.20263672 44.22412109 C-63.6822412 34.27004131 -57.81057603 26.59265981 -50 19 C-49.29746094 18.31164062 -48.59492187 17.62328125 -47.87109375 16.9140625 C-34.19804731 4.26304176 -18.25448192 -0.50785267 0 0 Z " fill="#F4AF03" transform="translate(95,316)"/>
<path d="M0 0 C11.88 0 23.76 0 36 0 C36 62.7 36 125.4 36 190 C31.38 187.36 26.76 184.72 22 182 C18.00908332 179.9682606 14.02959677 177.94837646 10 176 C10 175.67 10 175.34 10 175 C18.86166195 175.63297585 26.01432353 177.75358088 35 180 C35 120.93 35 61.86 35 1 C23.45 1 11.9 1 0 1 C0 0.67 0 0.34 0 0 Z " fill="#4799FB" transform="translate(117,124)"/>
<path d="M0 0 C9.05730307 0.49403471 17.39370934 3.32226777 26 6 C26 8.97 26 11.94 26 15 C25.12859375 14.49210937 24.2571875 13.98421875 23.359375 13.4609375 C15.69597391 9.022524 7.97631204 4.85667835 0 1 C0 0.67 0 0.34 0 0 Z " fill="#3C93F0" transform="translate(127,299)"/>
</svg>
